Newsreader6pt-ExtraBoldItalic.ufo
<glyph name="B" format="2">
  <advance width="1724"/>
  <unicode hex="0042"/>
  <anchor x="1062.0" y="1414" name="UCtop"/>
  <anchor x="739.0" y="0" name="bottom"/>
  <outline>
    <contour>
      <point x="757" y="1179" type="line"/>
      <point x="1092" y="1179" type="line" smooth="yes"/>
      <point x="1184" y="1179"/>
      <point x="1213" y="1150"/>
      <point x="1213.0" y="1086" type="curve" smooth="yes"/>
      <point x="1213.0" y="980.0"/>
      <point x="1177" y="846"/>
      <point x="1057" y="846" type="curve" smooth="yes"/>
      <point x="655" y="846" type="line"/>
      <point x="588" y="628" type="line"/>
      <point x="985" y="628" type="line" smooth="yes"/>
      <point x="1076" y="628"/>
      <point x="1105" y="593"/>
      <point x="1105.0" y="532" type="curve" smooth="yes"/>
      <point x="1105.0" y="393.0"/>
      <point x="1059" y="257"/>
      <point x="905" y="257" type="curve" smooth="yes"/>
      <point x="474" y="257" type="line"/>
      <point x="396" y="0" type="line"/>
      <point x="975" y="0" type="line" smooth="yes"/>
      <point x="1404" y="0"/>
      <point x="1605" y="181"/>
      <point x="1605" y="493" type="curve" smooth="yes"/>
      <point x="1605" y="671"/>
      <point x="1510" y="757"/>
      <point x="1236" y="771" type="curve"/>
      <point x="1213" y="752" type="line"/>
      <point x="1538" y="752"/>
      <point x="1720" y="873"/>
      <point x="1720" y="1126" type="curve" smooth="yes"/>
      <point x="1720" y="1309"/>
      <point x="1602" y="1414"/>
      <point x="1259" y="1414" type="curve" smooth="yes"/>
      <point x="828" y="1414" type="line"/>
    </contour>
    <contour>
      <point x="476" y="1249" type="line"/>
      <point x="140" y="169" type="line"/>
      <point x="-28" y="108" type="line"/>
      <point x="-61" y="0" type="line"/>
      <point x="601" y="0" type="line"/>
      <point x="1038" y="1414" type="line"/>
      <point x="354" y="1414" type="line"/>
      <point x="322" y="1306" type="line"/>
    </contour>
  </outline>
</glyph>
<glyph name="M" format="2">
  <advance width="2397"/>
  <unicode hex="004D"/>
  <anchor x="1379.0" y="1414" name="UCtop"/>
  <anchor x="946.0" y="0" name="bottom"/>
  <outline>
    <contour>
      <point x="793.0" y="1336.0" type="line"/>
      <point x="722.0" y="1288.0" type="line"/>
      <point x="663.0" y="0.0" type="line"/>
      <point x="1189.0" y="0.0" type="line"/>
      <point x="1901.0" y="1373.0" type="line"/>
      <point x="1912.0" y="1414.0" type="line"/>
      <point x="1659.0" y="1414.0" type="line"/>
      <point x="977.0" y="56.0" type="line"/>
      <point x="1157.0" y="127.0" type="line"/>
      <point x="1217.0" y="1414.0" type="line"/>
      <point x="369.0" y="1414.0" type="line"/>
      <point x="337.0" y="1306.0" type="line"/>
      <point x="510.0" y="1222.0" type="line"/>
      <point x="114.0" y="163.0" type="line"/>
      <point x="-59.0" y="108.0" type="line"/>
      <point x="-89.0" y="0.0" type="line"/>
      <point x="488.0" y="0.0" type="line"/>
      <point x="519.0" y="108.0" type="line"/>
      <point x="363.0" y="166.0" type="line"/>
    </contour>
    <contour>
      <point x="1834.0" y="1414.0" type="line"/>
      <point x="1568.0" y="169.0" type="line"/>
      <point x="1414.0" y="108.0" type="line"/>
      <point x="1382.0" y="0.0" type="line"/>
      <point x="2179.0" y="0.0" type="line"/>
      <point x="2211.0" y="108.0" type="line"/>
      <point x="2075.0" y="165.0" type="line"/>
      <point x="2317.0" y="1241.0" type="line"/>
      <point x="2489.0" y="1306.0" type="line"/>
      <point x="2521.0" y="1414.0" type="line"/>
    </contour>
  </outline>
</glyph>
<glyph name="V" format="2">
  <advance width="1766"/>
  <unicode hex="0056"/>
  <anchor x="1216.0" y="1414" name="UCtop"/>
  <anchor x="783.0" y="0" name="bottom"/>
  <outline>
    <contour>
      <point x="390.0" y="1249.0" type="line"/>
      <point x="477.0" y="0.0" type="line"/>
      <point x="1045.0" y="0.0" type="line"/>
      <point x="1826.0" y="1252.0" type="line"/>
      <point x="1969.0" y="1306.0" type="line"/>
      <point x="2004.0" y="1414.0" type="line"/>
      <point x="1425.0" y="1414.0" type="line"/>
      <point x="1391.0" y="1306.0" type="line"/>
      <point x="1546.0" y="1252.0" type="line"/>
      <point x="865.0" y="130.0" type="line"/>
      <point x="940.0" y="141.0" type="line"/>
      <point x="893.0" y="1251.0" type="line"/>
      <point x="1061.0" y="1306.0" type="line"/>
      <point x="1097.0" y="1414.0" type="line"/>
      <point x="256.0" y="1414.0" type="line"/>
      <point x="221.0" y="1306.0" type="line"/>
    </contour>
  </outline>
</glyph>
<glyph name="asciicircum" format="2">
  <advance width="1200"/>
  <unicode hex="005E"/>
  <outline>
    <contour>
      <point x="777.0" y="1248.0" type="line"/>
      <point x="863.0" y="650.0" type="line"/>
      <point x="1117.0" y="650.0" type="line"/>
      <point x="1003.0" y="1414.0" type="line"/>
      <point x="749.0" y="1414.0" type="line"/>
      <point x="167.0" y="650.0" type="line"/>
      <point x="469.0" y="650.0" type="line"/>
      <point x="922.0" y="1248.0" type="line"/>
    </contour>
  </outline>
</glyph>
<glyph name="f" format="2">
  <advance width="1035"/>
  <unicode hex="0066"/>
  <anchor x="1071.0" y="1414" name="UCtop"/>
  <anchor x="207.0" y="-435" name="bottom"/>
  <outline>
    <contour>
      <point x="129.0" y="862.0" type="line"/>
      <point x="1139.0" y="862.0" type="line"/>
      <point x="1139.0" y="1044.0" type="line"/>
      <point x="129.0" y="1044.0" type="line"/>
    </contour>
    <contour>
      <point x="728" y="419" type="curve" smooth="yes"/>
      <point x="886" y="1110" type="line" smooth="yes"/>
      <point x="919" y="1256"/>
      <point x="971" y="1302"/>
      <point x="1093" y="1302" type="curve" smooth="yes"/>
      <point x="1150" y="1302"/>
      <point x="1187" y="1295"/>
      <point x="1209" y="1271" type="curve" smooth="yes"/>
      <point x="1231" y="1247"/>
      <point x="1239" y="1207"/>
      <point x="1237" y="1144" type="curve"/>
      <point x="1448.0" y="1144.0"/>
      <point x="1504.0" y="1193.0"/>
      <point x="1504" y="1300" type="curve" smooth="yes"/>
      <point x="1504" y="1418"/>
      <point x="1420.0" y="1494.0"/>
      <point x="1129" y="1494" type="curve" smooth="yes"/>
      <point x="757" y="1494"/>
      <point x="471" y="1321"/>
      <point x="410" y="975" type="curve" smooth="yes"/>
      <point x="212" y="-143" type="line" smooth="yes"/>
      <point x="193" y="-248"/>
      <point x="149" y="-284"/>
      <point x="60" y="-284" type="curve" smooth="yes"/>
      <point x="23.0" y="-284"/>
      <point x="-1" y="-279"/>
      <point x="-24" y="-250" type="curve" smooth="yes"/>
      <point x="-47.0" y="-221.0"/>
      <point x="-54" y="-165"/>
      <point x="-57" y="-63" type="curve"/>
      <point x="-253" y="-63"/>
      <point x="-338" y="-122"/>
      <point x="-338" y="-241" type="curve" smooth="yes"/>
      <point x="-338" y="-390"/>
      <point x="-264" y="-465"/>
      <point x="-31" y="-465" type="curve" smooth="yes"/>
      <point x="291.0" y="-465.0"/>
      <point x="580" y="-230"/>
    </contour>
  </outline>
</glyph>
<glyph name="j" format="2">
  <advance width="887"/>
  <unicode hex="006A"/>
  <anchor x="735.0" y="1414" name="top"/>
  <anchor x="56.0" y="-435" name="bottom"/>
  <outline>
    <contour>
      <point x="454.0" y="1303.0" type="curve" smooth="yes"/>
      <point x="454.0" y="1211.0"/>
      <point x="533.0" y="1164.0"/>
      <point x="710.0" y="1164.0" type="curve" smooth="yes"/>
      <point x="947.0" y="1164.0"/>
      <point x="1016.0" y="1245.0"/>
      <point x="1016.0" y="1355.0" type="curve" smooth="yes"/>
      <point x="1016.0" y="1447.0"/>
      <point x="937.0" y="1494.0"/>
      <point x="760.0" y="1494.0" type="curve" smooth="yes"/>
      <point x="523.0" y="1494.0"/>
      <point x="454.0" y="1413.0"/>
    </contour>
    <contour>
      <point x="635" y="208" type="curve" smooth="yes"/>
      <point x="810" y="791" type="line" smooth="yes"/>
      <point x="870" y="991"/>
      <point x="862" y="1074"/>
      <point x="627" y="1074" type="curve" smooth="yes"/>
      <point x="456" y="1074"/>
      <point x="283" y="1008"/>
      <point x="15" y="798" type="curve"/>
      <point x="82" y="703" type="line"/>
      <point x="235" y="809"/>
      <point x="321" y="829"/>
      <point x="490" y="822" type="curve"/>
      <point x="395" y="954" type="line"/>
      <point x="89" y="-119" type="line" smooth="yes"/>
      <point x="56" y="-235"/>
      <point x="29" y="-280"/>
      <point x="-35" y="-280" type="curve" smooth="yes"/>
      <point x="-49" y="-280"/>
      <point x="-86" y="-225"/>
      <point x="-122" y="-172" type="curve" smooth="yes"/>
      <point x="-158.0" y="-119.0"/>
      <point x="-195" y="-66"/>
      <point x="-211" y="-66" type="curve" smooth="yes"/>
      <point x="-350" y="-66"/>
      <point x="-400" y="-152"/>
      <point x="-400" y="-246" type="curve" smooth="yes"/>
      <point x="-400" y="-370"/>
      <point x="-321" y="-465"/>
      <point x="-100" y="-465" type="curve" smooth="yes"/>
      <point x="197" y="-465"/>
      <point x="480" y="-309"/>
    </contour>
  </outline>
</glyph>
<glyph name="v" format="2">
  <advance width="1468"/>
  <unicode hex="0076"/>
  <anchor x="916.0" y="1044.0" name="top"/>
  <anchor x="656.0" y="0" name="bottom"/>
  <outline>
    <contour>
      <point x="1391" y="777" type="curve" smooth="yes"/>
      <point x="1391" y="1004"/>
      <point x="1304" y="1074"/>
      <point x="1187" y="1074" type="curve" smooth="yes"/>
      <point x="1025" y="1074"/>
      <point x="966" y="985"/>
      <point x="966" y="844" type="curve" smooth="yes"/>
      <point x="966" y="820"/>
      <point x="1142" y="812"/>
      <point x="1142" y="619" type="curve" smooth="yes"/>
      <point x="1142" y="388"/>
      <point x="979" y="229"/>
      <point x="795" y="229" type="curve" smooth="yes"/>
      <point x="708" y="229"/>
      <point x="669" y="260"/>
      <point x="669" y="329" type="curve" smooth="yes"/>
      <point x="669" y="362"/>
      <point x="678" y="403"/>
      <point x="694" y="454" type="curve" smooth="yes"/>
      <point x="890" y="1063" type="line"/>
      <point x="776" y="1072"/>
      <point x="729" y="1074"/>
      <point x="621" y="1074" type="curve" smooth="yes"/>
      <point x="235" y="1074"/>
      <point x="121" y="976"/>
      <point x="40" y="645" type="curve"/>
      <point x="87" y="633" type="line"/>
      <point x="174" y="774"/>
      <point x="218" y="787"/>
      <point x="349" y="787" type="curve" smooth="yes"/>
      <point x="355" y="787"/>
      <point x="360" y="787"/>
      <point x="364" y="787" type="curve"/>
      <point x="255" y="443" type="line" smooth="yes"/>
      <point x="233" y="374"/>
      <point x="222" y="312"/>
      <point x="222" y="258" type="curve" smooth="yes"/>
      <point x="222" y="70"/>
      <point x="353" y="-30"/>
      <point x="627" y="-30" type="curve" smooth="yes"/>
      <point x="1042" y="-30"/>
      <point x="1391" y="318"/>
    </contour>
  </outline>
</glyph>
<glyph name="y" format="2">
  <advance width="1351"/>
  <unicode hex="0079"/>
  <anchor x="823.0" y="1044.0" name="top"/>
  <anchor x="1061.0" y="-91" name="bottom"/>
  <outline>
    <contour>
      <point x="125.0" y="524.0" type="line"/>
      <point x="215.0" y="696.0"/>
      <point x="255.0" y="732.0"/>
      <point x="287.0" y="732.0" type="curve" smooth="yes"/>
      <point x="306" y="732"/>
      <point x="324" y="703"/>
      <point x="391" y="522" type="curve" smooth="yes"/>
      <point x="458" y="341"/>
      <point x="531.0" y="112.0"/>
      <point x="631.0" y="-270.0" type="curve"/>
      <point x="943.0" y="123.0" type="line"/>
      <point x="832" y="580.0"/>
      <point x="754" y="821"/>
      <point x="693" y="929" type="curve" smooth="yes"/>
      <point x="632.0" y="1037.0"/>
      <point x="574" y="1074"/>
      <point x="493.0" y="1074.0" type="curve" smooth="yes"/>
      <point x="328" y="1074.0"/>
      <point x="208" y="987"/>
      <point x="18.0" y="571.0" type="curve"/>
    </contour>
    <contour>
      <point x="714" y="15" type="line"/>
      <point x="599" y="-152"/>
      <point x="466" y="-215"/>
      <point x="331" y="-215" type="curve" smooth="yes"/>
      <point x="312" y="-215"/>
      <point x="269" y="-169"/>
      <point x="237" y="-132" type="curve" smooth="yes"/>
      <point x="205.0" y="-95.0"/>
      <point x="174" y="-64"/>
      <point x="160" y="-64" type="curve" smooth="yes"/>
      <point x="30" y="-64"/>
      <point x="-48" y="-155"/>
      <point x="-48" y="-255" type="curve" smooth="yes"/>
      <point x="-48" y="-379"/>
      <point x="31" y="-465"/>
      <point x="201" y="-465" type="curve" smooth="yes"/>
      <point x="434" y="-465"/>
      <point x="707" y="-305"/>
      <point x="950" y="43" type="curve" smooth="yes"/>
      <point x="1161" y="345"/>
      <point x="1374" y="847"/>
      <point x="1374" y="996" type="curve" smooth="yes"/>
      <point x="1374" y="1037"/>
      <point x="1347" y="1063"/>
      <point x="1255" y="1063" type="curve" smooth="yes"/>
      <point x="1146" y="1063"/>
      <point x="1054" y="1052"/>
      <point x="1020" y="1043" type="curve"/>
      <point x="1000" y="604"/>
      <point x="904" y="263"/>
      <point x="724" y="-1" type="curve"/>
    </contour>
  </outline>
</glyph>
<glyph name="braceright" format="2">
  <advance width="837"/>
  <unicode hex="007D"/>
  <outline>
    <contour>
      <point x="842.0" y="720.0" type="line"/>
      <point x="772.0" y="723.0" type="line" smooth="yes"/>
      <point x="700.0" y="726.0"/>
      <point x="673.0" y="745.0"/>
      <point x="673.0" y="792.0" type="curve" smooth="yes"/>
      <point x="673.0" y="906.0"/>
      <point x="800.0" y="1072.0"/>
      <point x="800.0" y="1223.0" type="curve" smooth="yes"/>
      <point x="800.0" y="1349.0"/>
      <point x="683.0" y="1465.0"/>
      <point x="510.0" y="1482.0" type="curve" smooth="yes"/>
      <point x="385.0" y="1494.0" type="line"/>
      <point x="303.0" y="1285.0" type="line"/>
      <point x="389.0" y="1272.0" type="line" smooth="yes"/>
      <point x="439.0" y="1265.0"/>
      <point x="461.0" y="1242.0"/>
      <point x="461.0" y="1194.0" type="curve" smooth="yes"/>
      <point x="461.0" y="1089.0"/>
      <point x="366.0" y="894.0"/>
      <point x="366.0" y="787.0" type="curve" smooth="yes"/>
      <point x="366.0" y="698.0"/>
      <point x="401.0" y="630.0"/>
      <point x="584.0" y="583.0" type="curve"/>
      <point x="608.0" y="663.0" type="line"/>
      <point x="359.0" y="631.0"/>
      <point x="251.0" y="516.0"/>
      <point x="211.0" y="387.0" type="curve" smooth="yes"/>
      <point x="182.0" y="292.0"/>
      <point x="175.0" y="195.0"/>
      <point x="145.0" y="99.0" type="curve" smooth="yes"/>
      <point x="120.0" y="18.0"/>
      <point x="81.0" y="-14.0"/>
      <point x="-8.0" y="-26.0" type="curve" smooth="yes"/>
      <point x="-102.0" y="-39.0" type="line"/>
      <point x="-147.0" y="-248.0" type="line"/>
      <point x="68.0" y="-233.0" type="line" smooth="yes"/>
      <point x="302.0" y="-217.0"/>
      <point x="452.0" y="-92.0"/>
      <point x="494.0" y="47.0" type="curve" smooth="yes"/>
      <point x="537.0" y="189.0"/>
      <point x="520.0" y="308.0"/>
      <point x="550.0" y="408.0" type="curve" smooth="yes"/>
      <point x="575.0" y="489.0"/>
      <point x="616.0" y="519.0"/>
      <point x="711.0" y="523.0" type="curve" smooth="yes"/>
      <point x="783.0" y="526.0" type="line"/>
    </contour>
  </outline>
</glyph>
<glyph name="ccedilla" format="2">
  <advance width="1216"/>
  <unicode hex="00E7"/>
  <outline>
    <contour>
      <point x="264.0" y="-465.0" type="curve" smooth="yes"/>
      <point x="550.0" y="-465.0"/>
      <point x="643.0" y="-368.0"/>
      <point x="643.0" y="-226.0" type="curve" smooth="yes"/>
      <point x="643.0" y="-147.0"/>
      <point x="588.0" y="-87.0"/>
      <point x="406.0" y="-65.0" type="curve"/>
      <point x="374.0" y="-190.0" type="line"/>
      <point x="655.0" y="49.0" type="line"/>
      <point x="499.0" y="49.0" type="line"/>
      <point x="230.0" y="-184.0" type="line"/>
      <point x="216.0" y="-229.0" type="line"/>
      <point x="377.0" y="-240.0"/>
      <point x="413.0" y="-258.0"/>
      <point x="413.0" y="-291.0" type="curve" smooth="yes"/>
      <point x="413.0" y="-333.0"/>
      <point x="385.0" y="-356.0"/>
      <point x="311.0" y="-356.0" type="curve" smooth="yes"/>
      <point x="243.0" y="-356.0"/>
      <point x="189.0" y="-312.0"/>
      <point x="165.0" y="-312.0" type="curve" smooth="yes"/>
      <point x="131.0" y="-312.0"/>
      <point x="104.0" y="-344.0"/>
      <point x="104.0" y="-387.0" type="curve" smooth="yes"/>
      <point x="104.0" y="-443.0"/>
      <point x="146.0" y="-465.0"/>
    </contour>
    <contour>
      <point x="784" y="910" type="curve" smooth="yes"/>
      <point x="839" y="910"/>
      <point x="884" y="854"/>
      <point x="924" y="792" type="curve" smooth="yes"/>
      <point x="964.0" y="730.0"/>
      <point x="995" y="662"/>
      <point x="1017" y="662" type="curve" smooth="yes"/>
      <point x="1127" y="662"/>
      <point x="1221" y="736"/>
      <point x="1221" y="851" type="curve" smooth="yes"/>
      <point x="1221" y="976"/>
      <point x="1117" y="1074"/>
      <point x="835" y="1074" type="curve" smooth="yes"/>
      <point x="349" y="1074"/>
      <point x="68" y="771"/>
      <point x="68" y="406" type="curve" smooth="yes"/>
      <point x="68" y="104"/>
      <point x="215" y="-30"/>
      <point x="544" y="-30" type="curve" smooth="yes"/>
      <point x="825" y="-30"/>
      <point x="1013" y="92"/>
      <point x="1131" y="436" type="curve"/>
      <point x="1025" y="436" type="line"/>
      <point x="942" y="308"/>
      <point x="854" y="251"/>
      <point x="718" y="251" type="curve" smooth="yes"/>
      <point x="563" y="251"/>
      <point x="515" y="308"/>
      <point x="515" y="482" type="curve" smooth="yes"/>
      <point x="515" y="736"/>
      <point x="614" y="910"/>
    </contour>
  </outline>
</glyph>
<glyph name="kgreenlandic" format="2">
  <advance width="1664"/>
  <unicode hex="0138"/>
  <outline>
    <contour>
      <point x="920.0" y="1044.0" type="line"/>
      <point x="842.0" y="1063.0"/>
      <point x="753.0" y="1074.0"/>
      <point x="642.0" y="1074.0" type="curve" smooth="yes"/>
      <point x="243.0" y="1074.0"/>
      <point x="129.0" y="976.0"/>
      <point x="48.0" y="645.0" type="curve"/>
      <point x="95.0" y="633.0" type="line"/>
      <point x="182.0" y="774.0"/>
      <point x="226.0" y="787.0"/>
      <point x="357.0" y="787.0" type="curve" smooth="yes"/>
      <point x="363.0" y="787.0"/>
      <point x="368.0" y="787.0"/>
      <point x="372.0" y="787.0" type="curve"/>
      <point x="132.0" y="0.0" type="line"/>
      <point x="601.0" y="0.0" type="line"/>
    </contour>
    <contour>
      <point x="1459.0" y="643.0" type="curve" smooth="yes"/>
      <point x="1552" y="643.0"/>
      <point x="1655.0" y="733"/>
      <point x="1655.0" y="881.0" type="curve" smooth="yes"/>
      <point x="1655" y="991"/>
      <point x="1583.0" y="1074.0"/>
      <point x="1442.0" y="1074.0" type="curve" smooth="yes"/>
      <point x="1292.0" y="1074.0"/>
      <point x="1160.0" y="988.0"/>
      <point x="768.0" y="569.0" type="curve"/>
      <point x="731.0" y="505.0" type="line"/>
      <point x="848" y="91"/>
      <point x="964" y="-30"/>
      <point x="1092.0" y="-30.0" type="curve" smooth="yes"/>
      <point x="1231" y="-30.0"/>
      <point x="1421" y="68"/>
      <point x="1593.0" y="264.0" type="curve"/>
      <point x="1529.0" y="355.0" type="line"/>
      <point x="1455.0" y="294"/>
      <point x="1415.0" y="276.0"/>
      <point x="1384.0" y="276.0" type="curve" smooth="yes"/>
      <point x="1303" y="276"/>
      <point x="1221.0" y="393.0"/>
      <point x="1085.0" y="785.0" type="curve"/>
      <point x="890.0" y="537.0" type="line"/>
      <point x="1171.0" y="765.0"/>
      <point x="1228.0" y="796.0"/>
      <point x="1284.0" y="796.0" type="curve" smooth="yes"/>
      <point x="1320.0" y="796.0"/>
      <point x="1356.0" y="764.0"/>
      <point x="1388.0" y="728.0" type="curve" smooth="yes"/>
      <point x="1420.0" y="692.0"/>
      <point x="1451" y="643"/>
    </contour>
  </outline>
</glyph>
<glyph name="Lslash" format="2">
  <advance width="1548"/>
  <unicode hex="0141"/>
  <outline>
    <contour>
      <point x="1016.0" y="1245.0" type="line"/>
      <point x="1184.0" y="1306.0" type="line"/>
      <point x="1215.0" y="1414.0" type="line"/>
      <point x="383.0" y="1414.0" type="line"/>
      <point x="351.0" y="1306.0" type="line"/>
      <point x="505.0" y="1249.0" type="line"/>
      <point x="169.0" y="169.0" type="line"/>
      <point x="1.0" y="108.0" type="line"/>
      <point x="-32.0" y="0.0" type="line"/>
      <point x="630.0" y="0.0" type="line"/>
    </contour>
    <contour>
      <point x="930.0" y="120.0" type="line"/>
      <point x="1110.0" y="234.0" type="line"/>
      <point x="273.0" y="234.0" type="line"/>
      <point x="205.0" y="0.0" type="line"/>
      <point x="1004.0" y="0.0" type="line"/>
      <point x="1078.0" y="-103.0" type="line"/>
      <point x="1235.0" y="-103.0" type="line"/>
      <point x="1525.0" y="562.0" type="line"/>
      <point x="1328.0" y="562.0" type="line"/>
    </contour>
    <contour>
      <point x="1263.0" y="1041.0" type="line"/>
      <point x="750.0" y="811.0" type="line"/>
      <point x="568.0" y="815.0" type="line"/>
      <point x="150.0" y="627.0" type="line"/>
      <point x="74.0" y="378.0" type="line"/>
      <point x="492.0" y="566.0" type="line"/>
      <point x="674.0" y="562.0" type="line"/>
      <point x="1187.0" y="792.0" type="line"/>
    </contour>
  </outline>
</glyph>
<glyph name="scedilla" format="2">
  <advance width="1172"/>
  <unicode hex="015F"/>
  <outline>
    <contour>
      <point x="265.0" y="-465.0" type="curve" smooth="yes"/>
      <point x="551.0" y="-465.0"/>
      <point x="644.0" y="-368.0"/>
      <point x="644.0" y="-226.0" type="curve" smooth="yes"/>
      <point x="644.0" y="-147.0"/>
      <point x="589.0" y="-87.0"/>
      <point x="407.0" y="-65.0" type="curve"/>
      <point x="375.0" y="-190.0" type="line"/>
      <point x="656.0" y="49.0" type="line"/>
      <point x="500.0" y="49.0" type="line"/>
      <point x="231.0" y="-184.0" type="line"/>
      <point x="217.0" y="-229.0" type="line"/>
      <point x="378.0" y="-240.0"/>
      <point x="414.0" y="-258.0"/>
      <point x="414.0" y="-291.0" type="curve" smooth="yes"/>
      <point x="414.0" y="-333.0"/>
      <point x="386.0" y="-356.0"/>
      <point x="312.0" y="-356.0" type="curve" smooth="yes"/>
      <point x="244.0" y="-356.0"/>
      <point x="190.0" y="-312.0"/>
      <point x="166.0" y="-312.0" type="curve" smooth="yes"/>
      <point x="132.0" y="-312.0"/>
      <point x="105.0" y="-344.0"/>
      <point x="105.0" y="-387.0" type="curve" smooth="yes"/>
      <point x="105.0" y="-443.0"/>
      <point x="147.0" y="-465.0"/>
    </contour>
    <contour>
      <point x="275" y="326" type="curve"/>
      <point x="49" y="326"/>
      <point x="0" y="282"/>
      <point x="0" y="175" type="curve" smooth="yes"/>
      <point x="0" y="57"/>
      <point x="106" y="-30"/>
      <point x="423" y="-30" type="curve" smooth="yes"/>
      <point x="857" y="-30"/>
      <point x="1054" y="104"/>
      <point x="1054" y="397" type="curve" smooth="yes"/>
      <point x="1054" y="557"/>
      <point x="973" y="628"/>
      <point x="774" y="681" type="curve" smooth="yes"/>
      <point x="575" y="734"/>
      <point x="551" y="761"/>
      <point x="551" y="821" type="curve" smooth="yes"/>
      <point x="551" y="884"/>
      <point x="592" y="917"/>
      <point x="730" y="917" type="curve" smooth="yes"/>
      <point x="782" y="917"/>
      <point x="820" y="908"/>
      <point x="853" y="882" type="curve" smooth="yes"/>
      <point x="886" y="856.0"/>
      <point x="909" y="808"/>
      <point x="923" y="734" type="curve"/>
      <point x="1125" y="734"/>
      <point x="1172" y="778"/>
      <point x="1172" y="883" type="curve" smooth="yes"/>
      <point x="1172" y="995"/>
      <point x="1075" y="1073"/>
      <point x="769" y="1073" type="curve" smooth="yes"/>
      <point x="376" y="1073"/>
      <point x="172" y="925"/>
      <point x="172" y="693" type="curve" smooth="yes"/>
      <point x="172" y="501"/>
      <point x="252" y="436"/>
      <point x="457" y="386" type="curve" smooth="yes"/>
      <point x="662" y="336"/>
      <point x="692" y="314"/>
      <point x="692" y="243" type="curve" smooth="yes"/>
      <point x="692" y="172"/>
      <point x="634" y="132"/>
      <point x="465" y="132" type="curve" smooth="yes"/>
      <point x="389" y="132"/>
      <point x="344" y="139"/>
      <point x="317" y="167" type="curve" smooth="yes"/>
      <point x="290" y="195"/>
      <point x="280" y="244"/>
    </contour>
  </outline>
</glyph>
<glyph name="uni02B9" format="2">
  <advance width="581"/>
  <unicode hex="02B9"/>
  <outline>
    <contour>
      <point x="189.0" y="800.0" type="line"/>
      <point x="428.0" y="800.0" type="line"/>
      <point x="754.0" y="1336.0" type="line"/>
      <point x="778.0" y="1414.0" type="line"/>
      <point x="401.0" y="1414.0" type="line"/>
    </contour>
  </outline>
</glyph>
<glyph name="uni0304" format="2">
  <unicode hex="0304"/>
  <anchor x="160" y="1044.0" name="_top"/>
  <anchor x="288" y="1464.0" name="top"/>
  <outline>
    <contour>
      <point x="-127.0" y="1209.0" type="line"/>
      <point x="548.0" y="1209.0" type="line"/>
      <point x="604.0" y="1394.0" type="line"/>
      <point x="-70.0" y="1394.0" type="line"/>
    </contour>
  </outline>
</glyph>
<glyph name="hookabovecomb" format="2">
  <unicode hex="0309"/>
  <anchor x="160" y="1044.0" name="_top"/>
  <anchor x="288" y="1464.0" name="top"/>
  <outline>
    <contour>
      <point x="37.0" y="1325.0" type="line"/>
      <point x="234.0" y="1333.0"/>
      <point x="264.0" y="1317.0"/>
      <point x="264.0" y="1291.0" type="curve" smooth="yes"/>
      <point x="264.0" y="1262.0"/>
      <point x="250.0" y="1241.0"/>
      <point x="111.0" y="1224.0" type="curve"/>
      <point x="96.0" y="1119.0" type="line"/>
      <point x="438.0" y="1155.0"/>
      <point x="518.0" y="1243.0"/>
      <point x="518.0" y="1380.0" type="curve" smooth="yes"/>
      <point x="518.0" y="1470.0"/>
      <point x="449.0" y="1528.0"/>
      <point x="101.0" y="1524.0" type="curve"/>
    </contour>
  </outline>
</glyph>
<glyph name="uni0331" format="2">
  <unicode hex="0331"/>
  <anchor x="-160" y="0" name="_bottom"/>
  <anchor x="-302" y="-465.0" name="bottom"/>
  <outline>
    <contour>
      <point x="-598.0" y="-326.0" type="line"/>
      <point x="77.0" y="-326.0" type="line"/>
      <point x="140.0" y="-119.0" type="line"/>
      <point x="-534.0" y="-119.0" type="line"/>
    </contour>
  </outline>
</glyph>
<glyph name="uni0335" format="2">
  <unicode hex="0335"/>
  <anchor x="209" y="1207.0" name="_center"/>
  <outline>
    <contour>
      <point x="-190.0" y="1142.0" type="line"/>
      <point x="570.0" y="1142.0" type="line"/>
      <point x="609.0" y="1272.0" type="line"/>
      <point x="-151.0" y="1272.0" type="line"/>
    </contour>
  </outline>
</glyph>
<glyph name="notequal" format="2">
  <advance width="1200"/>
  <unicode hex="2260"/>
  <outline>
    <contour>
      <point x="3.0" y="0.0" type="line"/>
      <point x="310.0" y="0.0" type="line"/>
      <point x="1197.0" y="1044.0" type="line"/>
      <point x="891.0" y="1044.0" type="line"/>
    </contour>
    <contour>
      <point x="271.0" y="874.0" type="line"/>
      <point x="189.0" y="606.0" type="line"/>
      <point x="1063.0" y="606.0" type="line"/>
      <point x="1145.0" y="874.0" type="line"/>
    </contour>
    <contour>
      <point x="138.0" y="438.0" type="line"/>
      <point x="56.0" y="170.0" type="line"/>
      <point x="930.0" y="170.0" type="line"/>
      <point x="1012.0" y="438.0" type="line"/>
    </contour>
  </outline>
</glyph>
<glyph name="uni27E9" format="2">
  <advance width="1200"/>
  <unicode hex="27E9"/>
  <outline>
    <contour>
      <point x="749.0" y="780.0" type="line"/>
      <point x="27.0" y="0.0" type="line"/>
      <point x="403.0" y="0.0" type="line"/>
      <point x="1018.0" y="663.0" type="line"/>
      <point x="1045.0" y="751.0" type="line"/>
      <point x="766.0" y="1414.0" type="line"/>
      <point x="459.0" y="1414.0" type="line"/>
      <point x="735.0" y="710.0" type="line"/>
    </contour>
  </outline>
</glyph>
<glyph name="acutecomb.case" format="2">
  <anchor x="273" y="1414.0" name="_UCtop"/>
  <anchor x="434" y="1941.0" name="UCtop"/>
  <outline>
    <contour>
      <point x="192.0" y="1544.0" type="line"/>
      <point x="404.0" y="1544.0" type="line"/>
      <point x="823.0" y="1796.0" type="line"/>
      <point x="846.0" y="1870.0" type="line"/>
      <point x="438.0" y="1870.0" type="line"/>
    </contour>
  </outline>
</glyph>
<glyph name="caroncomb.alt" format="2">
  <anchor x="288" y="1464.0" name="_right"/>
  <outline>
    <contour>
      <point x="268.0" y="1044.0" type="line"/>
      <point x="453.0" y="1044.0" type="line"/>
      <point x="768.0" y="1404.0" type="line"/>
      <point x="787.0" y="1464.0" type="line"/>
      <point x="442.0" y="1464.0" type="line"/>
    </contour>
  </outline>
</glyph>
<glyph name="eight.lf" format="2">
  <advance width="1430"/>
  <outline>
    <contour>
      <point x="908.0" y="855.0" type="line"/>
      <point x="1212.0" y="819.0"/>
      <point x="1449" y="914"/>
      <point x="1449.0" y="1154" type="curve" smooth="yes"/>
      <point x="1449.0" y="1333.0"/>
      <point x="1328" y="1444"/>
      <point x="935" y="1444" type="curve" smooth="yes"/>
      <point x="452.0" y="1444.0"/>
      <point x="275.0" y="1254.0"/>
      <point x="275.0" y="992.0" type="curve" smooth="yes"/>
      <point x="275" y="697"/>
      <point x="492.0" y="622.0"/>
      <point x="645.0" y="566.0" type="curve" smooth="yes"/>
      <point x="798.0" y="510.0"/>
      <point x="884" y="471"/>
      <point x="884.0" y="362.0" type="curve" smooth="yes"/>
      <point x="884.0" y="261"/>
      <point x="804" y="205"/>
      <point x="614" y="205" type="curve" smooth="yes"/>
      <point x="447.0" y="205"/>
      <point x="398.0" y="251.0"/>
      <point x="398" y="373" type="curve" smooth="yes"/>
      <point x="398" y="494"/>
      <point x="471" y="590"/>
      <point x="643" y="651" type="curve"/>
      <point x="606.0" y="704.0" type="line"/>
      <point x="281.40792019158044" y="673.8053879247982"/>
      <point x="60.0" y="557.9254498714652"/>
      <point x="60" y="301" type="curve" smooth="yes"/>
      <point x="60" y="97.0"/>
      <point x="175" y="-30"/>
      <point x="599" y="-30.0" type="curve" smooth="yes"/>
      <point x="1099" y="-30.0"/>
      <point x="1308.0" y="143"/>
      <point x="1308.0" y="468.0" type="curve" smooth="yes"/>
      <point x="1308" y="735"/>
      <point x="1128.0" y="831.0"/>
      <point x="968.0" y="890.0" type="curve" smooth="yes"/>
      <point x="808.0" y="949.0"/>
      <point x="659" y="967"/>
      <point x="659.0" y="1079.0" type="curve" smooth="yes"/>
      <point x="659.0" y="1159.0"/>
      <point x="692" y="1214"/>
      <point x="899" y="1214" type="curve" smooth="yes"/>
      <point x="1064" y="1214"/>
      <point x="1112" y="1172"/>
      <point x="1112" y="1102" type="curve" smooth="yes"/>
      <point x="1112" y="1014"/>
      <point x="1045" y="925"/>
      <point x="851" y="886" type="curve"/>
    </contour>
  </outline>
</glyph>
<glyph name="seven.lf" format="2">
  <advance width="1317"/>
  <outline>
    <contour>
      <point x="247.0" y="996.0" type="line"/>
      <point x="1186.0" y="996.0" type="line"/>
      <point x="1331.0" y="1283.0" type="line"/>
      <point x="176.0" y="0.0" type="line"/>
      <point x="676.0" y="0.0" type="line"/>
      <point x="1533.0" y="1372.0" type="line"/>
      <point x="1546.0" y="1414.0" type="line"/>
      <point x="611.0" y="1414.0" type="line"/>
      <point x="547.0" y="1510.0" type="line"/>
      <point x="428.0" y="1510.0" type="line"/>
      <point x="118.0" y="749.0" type="line"/>
      <point x="309.0" y="749.0" type="line"/>
      <point x="767.0" y="1183.0" type="line"/>
    </contour>
  </outline>
</glyph>
<glyph name="uni0302.case" format="2">
  <anchor x="273" y="1414.0" name="_UCtop"/>
  <anchor x="412" y="1870.0" name="UCtop"/>
  <outline>
    <contour>
      <point x="-89.0" y="1544.0" type="line"/>
      <point x="188.0" y="1544.0" type="line"/>
      <point x="416.0" y="1701.0" type="line"/>
      <point x="333.0" y="1701.0" type="line"/>
      <point x="465.0" y="1544.0" type="line"/>
      <point x="713.0" y="1544.0" type="line"/>
      <point x="566.0" y="1870.0" type="line"/>
      <point x="258.0" y="1870.0" type="line"/>
    </contour>
  </outline>
</glyph>
<glyph name="uni0302_acutecomb" format="2">
  <anchor x="160" y="1044.0" name="_top"/>
  <outline>
    <contour>
      <point x="594.0" y="1335.0" type="line"/>
      <point x="793.0" y="1335.0" type="line"/>
      <point x="1119.0" y="1537.0" type="line"/>
      <point x="1139.0" y="1602.0" type="line"/>
      <point x="755.0" y="1602.0" type="line"/>
    </contour>
    <contour>
      <point x="-213.0" y="1138.0" type="line"/>
      <point x="64.0" y="1138.0" type="line"/>
      <point x="292.0" y="1295.0" type="line"/>
      <point x="209.0" y="1295.0" type="line"/>
      <point x="341.0" y="1138.0" type="line"/>
      <point x="589.0" y="1138.0" type="line"/>
      <point x="442.0" y="1464.0" type="line"/>
      <point x="134.0" y="1464.0" type="line"/>
    </contour>
  </outline>
</glyph>
<glyph name="uni030A.case" format="2">
  <anchor x="273" y="1414.0" name="_UCtop"/>
  <anchor x="412" y="1870.0" name="UCtop"/>
  <outline>
    <contour>
      <point x="364.0" y="1900.0" type="curve" smooth="yes"/>
      <point x="254.0" y="1900.0"/>
      <point x="174.0" y="1823.0"/>
      <point x="174.0" y="1713.0" type="curve" smooth="yes"/>
      <point x="174.0" y="1605.0"/>
      <point x="254.0" y="1526.0"/>
      <point x="364.0" y="1526.0" type="curve" smooth="yes"/>
      <point x="474.0" y="1526.0"/>
      <point x="554.0" y="1605.0"/>
      <point x="554.0" y="1713.0" type="curve" smooth="yes"/>
      <point x="554.0" y="1823.0"/>
      <point x="474.0" y="1900.0"/>
    </contour>
    <contour>
      <point x="364.0" y="1609.0" type="curve" smooth="yes"/>
      <point x="304.0" y="1609.0"/>
      <point x="262.0" y="1653.0"/>
      <point x="262.0" y="1713.0" type="curve" smooth="yes"/>
      <point x="262.0" y="1778.0"/>
      <point x="304.0" y="1822.0"/>
      <point x="364.0" y="1822.0" type="curve" smooth="yes"/>
      <point x="424.0" y="1822.0"/>
      <point x="466.0" y="1778.0"/>
      <point x="466.0" y="1713.0" type="curve" smooth="yes"/>
      <point x="466.0" y="1653.0"/>
      <point x="424.0" y="1609.0"/>
    </contour>
  </outline>
</glyph>
<glyph name="uni030C.case" format="2">
  <anchor x="273" y="1414.0" name="_UCtop"/>
  <anchor x="412" y="1870.0" name="UCtop"/>
  <outline>
    <contour>
      <point x="813.0" y="1870.0" type="line"/>
      <point x="536.0" y="1870.0" type="line"/>
      <point x="308.0" y="1713.0" type="line"/>
      <point x="391.0" y="1713.0" type="line"/>
      <point x="259.0" y="1870.0" type="line"/>
      <point x="11.0" y="1870.0" type="line"/>
      <point x="158.0" y="1544.0" type="line"/>
      <point x="466.0" y="1544.0" type="line"/>
    </contour>
  </outline>
</glyph>
